<?xml version="1.0" encoding="utf-8"?>
<!-- Generator: Adobe Illustrator 22.1.0, SVG Export Plug-In . SVG Version: 6.00 Build 0)  -->
<svg version="1.1" id="Layer_1" xmlns="http://www.w3.org/2000/svg" xmlns:xlink="http://www.w3.org/1999/xlink" x="0px" y="0px"
	 viewBox="0 0 1000 381.2" style="enable-background:new 0 0 1000 381.2;" xml:space="preserve">
<style type="text/css">
	.st0{fill:#231F20;}
</style>
<title>Artboard 1dg</title>
<path class="st0" d="M281.1,56.7h-35.4c-2.5,0.1-4.6,2.1-4.6,4.6v266.9c0,2.5,2,4.6,4.5,4.6c0,0,0.1,0,0.1,0h9.3
	c2.5-0.1,4.4-2.2,4.3-4.6V167.5h21.8c18.4,0,33.4-14.9,33.4-33.3v0V90.3C314.5,71.9,299.6,56.8,281.1,56.7z M295.9,134.1
	c0,8.2-6.7,14.8-14.8,14.8h-21.8V75.3h21.8c8.2,0.1,14.9,6.8,14.8,15c0,0,0,0,0,0V134.1z"/>
<path class="st0" d="M383.4,56.7h-41.2c-5.1,0-9.3,4.2-9.3,9.3v257.6c-0.1,5.1,4,9.2,9,9.3c0.1,0,0.2,0,0.2,0h41.2
	c2.5,0,4.6-2,4.6-4.5c0,0,0-0.1,0-0.1v-9.1c-0.1-2.5-2.1-4.6-4.6-4.6h-31.9v-147h31.9c2.5-0.1,4.6-2.1,4.6-4.6v-9.3
	c0-2.5-2-4.6-4.5-4.6c0,0-0.1,0-0.1,0h-31.9V75.3h31.9c2.5,0,4.6-2,4.6-4.5c0,0,0-0.1,0-0.1v-9.3C387.9,58.8,385.9,56.8,383.4,56.7z
	"/>
<path class="st0" d="M446.5,57h-30.9c-5.1,0-9.2,4.2-9.3,9.3v262c0,2.5,2,4.6,4.5,4.6c0,0,0.1,0,0.1,0h9.2c2.5-0.1,4.6-2.1,4.6-4.6
	V167.5h21.9c8.2,0.1,14.9,6.8,14.8,15.1c0,0,0,0,0,0v145.7c0,2.5,2,4.6,4.5,4.6c0,0,0.1,0,0.1,0h9c2.5,0,4.6-2,4.6-4.5
	c0,0,0-0.1,0-0.1V182.6c0.1-9.2-3.6-18-10.2-24.4c6.6-6.3,10.3-15,10.2-24.1V90.3c0.1-18.3-14.7-33.3-33-33.3
	C446.7,57,446.6,57,446.5,57z M461.5,134.3c0,8.1-6.6,14.7-14.8,14.8h-21.9V75.4h21.9c8.2,0.1,14.9,6.8,14.8,15c0,0,0,0,0,0
	L461.5,134.3z"/>
<path class="st0" d="M622.3,56.7h-9.1c-2.5,0.1-4.6,2.1-4.6,4.6v87.8h-36.8V61.3c-0.1-2.5-2.1-4.6-4.6-4.6H558
	c-2.5,0.1-4.6,2.1-4.6,4.6v267.3c0.1,2.5,2.2,4.4,4.6,4.3h9.1c2.5,0,4.6-2,4.6-4.5c0,0,0-0.1,0-0.1V167.5h36.8v160.8
	c0,2.5,2,4.6,4.5,4.6c0,0,0.1,0,0.1,0h9.1c2.5,0,4.6-2,4.6-4.5c0,0,0-0.1,0-0.1V61.3C626.8,58.8,624.8,56.8,622.3,56.7z"/>
<path class="st0" d="M860.2,56.7h-9.1c-2.5,0-4.6,2-4.6,4.5c0,0,0,0.1,0,0.1v223.1c0,1.6-0.3,3.2-0.8,4.6l-13.5,25.4l-7.4-0.1l0,0
	l-0.1-0.2v-0.1l-9.1-16.9l-4.4-8.2c-0.6-1.5-0.9-3.1-0.9-4.6V61.2c0.1-2.4-1.8-4.4-4.2-4.5c-0.1,0-0.2,0-0.3,0h-9.4
	c-2.4-0.1-4.4,1.8-4.5,4.2c0,0.1,0,0.2,0,0.3v223.1c0,1.6-0.2,3.2-0.8,4.7l-4.4,8.2l-9.1,16.9l0,0.1l-0.1,0.2l0,0l-7.4,0.1
	l-13.5-25.4c-0.6-1.5-0.9-3.1-0.8-4.6V61.4c0-2.5-2-4.6-4.5-4.6c0,0-0.1,0-0.1,0h-9.1c-2.5,0-4.6,2-4.6,4.5c0,0,0,0.1,0,0.1v223.1
	c0,6.6,2,13.1,5.8,18.5l15.7,27.6c0.8,1.5,2.4,2.4,4.1,2.3h22c0.1,0,0.3,0,0.4,0v0l0,0c1.7,0,3.2-0.9,4.1-2.3l11.8-21l11.8,21
	c0.8,1.4,2.4,2.3,4.1,2.3l0,0v0c0.1,0,0.3,0,0.4,0h22c1.7,0.1,3.3-0.8,4.1-2.3l15.7-27.6c3.8-5.5,5.8-11.9,5.8-18.6V61.4
	c0-2.5-2-4.6-4.5-4.6C860.3,56.7,860.3,56.7,860.2,56.7z"/>
<path class="st0" d="M896.6,306.7h-8.6c-2.3,0-4.3,1.8-4.3,4.2c0,0,0,0.1,0,0.1v17.7c0,2.3,1.8,4.3,4.2,4.3c0,0,0.1,0,0.1,0h8.6
	c2.3-0.1,4.2-1.9,4.3-4.3V311C900.9,308.6,899,306.7,896.6,306.7z"/>
<path class="st0" d="M956.7,104.9V93.8c0-20.3-16.5-36.8-36.8-36.8s-36.8,16.5-36.8,36.8v6.2c0,1.2,0.4,2.3,1.2,3.1
	c0.9,1,2.1,1.5,3.5,1.5h9c2.5,0,4.6-2,4.6-4.5c0,0,0-0.1,0-0.1v-3.4c0,0,0-1.8,0-2.8c0-4.9,2-9.6,5.4-13.1c1.5-1.5,3.2-2.7,5.1-3.6
	h0.1c2-0.9,4.1-1.5,6.3-1.7h0.2c0.4,0,0.8-0.1,1.3-0.1h0.2c0.5,0,1,0,1.5,0.1c0.3,0,0.7,0,1,0.1c2.4,0.4,4.7,1.2,6.8,2.3
	c0.1,0.1,0.2,0.1,0.3,0.2c1.3,0.8,2.4,1.7,3.5,2.8c3.5,3.5,5.4,8.2,5.4,13.1v12.8c0,0-36.2,101.2-51.2,151.2v0
	c-2.2,7.8-3.6,13-3.6,14.2v13.1c0,2.3,1.8,4.3,4.2,4.3c0,0,0.1,0,0.1,0h8.6c2.3-0.1,4.2-1.9,4.3-4.3v-13.1
	C915.1,228.2,956.6,111.6,956.7,104.9L956.7,104.9z"/>
<path class="st0" d="M112.3,298.5c-0.5,4.1-2.4,7.9-5.3,10.8c-1.1,1-2.2,2-3.5,2.8l-0.3,0.2c-2.1,1.1-4.5,1.9-6.8,2.3
	c-0.3,0.1-0.7,0.1-1,0.1c-0.5,0-1,0.1-1.4,0.1h-0.2c-0.4,0-0.8,0-1.3-0.1h-0.2c-2.2-0.3-4.3-0.8-6.2-1.7l-0.1,0
	c-1.9-0.9-3.6-2.1-5.1-3.6c-3.5-3.5-5.4-8.2-5.4-13.1c0-1,0-2.8,0-2.8V290c0-2.5-2-4.6-4.5-4.6c0,0-0.1,0-0.1,0h-9
	c-1.3,0-2.6,0.5-3.5,1.5c-0.8,0.9-1.2,2-1.2,3.1v6.1c0.3,20.3,17.1,36.5,37.4,36.1c19.8-0.3,35.8-16.3,36.1-36.1v-11
	c0-8.7-55.4-178.5-55.4-178.5V93.8c0-4.9,2-9.6,5.4-13.1c1-1,2.2-1.9,3.5-2.7c0.1-0.1,0.2-0.1,0.3-0.2c2.1-1.1,4.5-1.9,6.8-2.3
	c0.3-0.1,0.7-0.1,1-0.1c0.5,0,1-0.1,1.4-0.1H94c0.4,0,0.8,0,1.3,0.1h0.2c2.2,0.3,4.3,0.8,6.3,1.7h0.1c1.9,0.9,3.6,2.1,5.1,3.6
	c3.5,3.5,5.4,8.2,5.4,13.1c0,0.9,0,2.8,0,2.8v3.4c0,2.5,2,4.6,4.5,4.6c0,0,0.1,0,0.1,0h9c1.3,0,2.6-0.5,3.5-1.5
	c0.8-0.9,1.2-2,1.2-3.1v-6.2c-0.3-20.3-17.1-36.5-37.4-36.1C73.4,58,57.5,74,57.1,93.8v11.2c0,6.7,34.1,112.5,48.4,156.4l6.1,18.8
	c0.3,1.3,0.6,2.2,0.7,3.1"/>
<path class="st0" d="M218.2,57h-9.1c-2.6,0.1-4.6,2.1-4.8,4.6v234.5l0,0c0.1,10.1-8.1,18.3-18.1,18.4c0,0-0.1,0-0.1,0
	c-10.2,0-18.5-8.2-18.5-18.4l0,0v-66l0,0V61.6c-0.1-2.5-2.1-4.5-4.6-4.6h-9.1c-2.5,0.2-4.5,2.2-4.6,4.6v235c0,2.4,0.3,4.8,0.9,7.2
	c3.6,17,18.6,29.1,35.9,29.1h0.1c0.2,0,0.4,0,0.5,0c17.1-0.3,31.8-12.4,35.2-29.2c0.6-2.3,0.9-4.7,0.9-7v-235
	C222.7,59.1,220.7,57.1,218.2,57z"/>
<path class="st0" d="M706.5,66.2c-6.7-6.1-15.4-9.4-24.5-9.4h-0.1h-0.4c-18.6,0-36.2,15.1-36.2,33.7v1.8c0,0.4,0,2.2,0,2.6v200.1
	c0,0.4,0,3.5,0,3.5c1.2,20.2,18.6,35.7,38.8,34.5c16.9-1,30.9-13.4,34-30c0.5-2,0.7-4.1,0.7-6.1V90.3
	C718.8,80.8,713.8,72.3,706.5,66.2z M700.4,125.2v171l0,0c0,10.2-8.2,18.4-18.4,18.4s-18.4-8.2-18.4-18.4c0-0.2,0-0.4,0-0.6V94.4
	c0-0.2,0-1.7,0-1.7c0.6-10.1,9.3-17.9,19.4-17.3c9.7,0.6,17.3,8.6,17.3,18.3l0,0L700.4,125.2z"/>
</svg>
