<svg id="Layer_1" data-name="Layer 1" xmlns="http://www.w3.org/2000/svg" viewBox="0 0 1000 381.16"><defs><style>.cls-1{fill:#e40046;}</style></defs><title>Artboard 1 copy 3dg</title><path class="cls-1" d="M281.13,56.7H245.72a4.78,4.78,0,0,0-4.64,4.64V328.27a4.59,4.59,0,0,0,4.64,4.65H255a4.52,4.52,0,0,0,4.34-4.65V167.47h21.78a33.35,33.35,0,0,0,33.35-33.35V90.35A33.61,33.61,0,0,0,281.13,56.7Zm14.81,77.42a14.85,14.85,0,0,1-14.81,14.78H259.35V75.27h21.78a14.93,14.93,0,0,1,14.81,15.08Z"/><path class="cls-1" d="M383.36,56.7H342.15A9.35,9.35,0,0,0,332.87,66V323.63a9.17,9.17,0,0,0,9.28,9.29h41.21a4.59,4.59,0,0,0,4.64-4.65v-9.14a4.76,4.76,0,0,0-4.64-4.64H351.44v-147h31.92a4.76,4.76,0,0,0,4.64-4.64v-9.29a4.58,4.58,0,0,0-4.64-4.64H351.44V75.27h31.92A4.58,4.58,0,0,0,388,70.63V61.34A4.78,4.78,0,0,0,383.36,56.7Z"/><path class="cls-1" d="M446.51,57H415.65a9.34,9.34,0,0,0-9.26,9.29v262a4.57,4.57,0,0,0,4.62,4.65h9.19a4.77,4.77,0,0,0,4.64-4.65V167.47h21.92a14.92,14.92,0,0,1,14.78,15.08V328.27a4.59,4.59,0,0,0,4.64,4.65h9a4.59,4.59,0,0,0,4.64-4.65V182.55a33.45,33.45,0,0,0-10.16-24.36,32.77,32.77,0,0,0,10.16-24.07V90.35A33.18,33.18,0,0,0,446.51,57Zm15,77.31a14.84,14.84,0,0,1-14.78,14.78H424.84V75.38h21.92a14.91,14.91,0,0,1,14.78,15.08Z"/><path class="cls-1" d="M622.27,56.7h-9.1a4.78,4.78,0,0,0-4.64,4.64v87.75H571.76V61.34a4.78,4.78,0,0,0-4.64-4.64H558a4.78,4.78,0,0,0-4.64,4.64v267.3a4.5,4.5,0,0,0,4.64,4.28h9.1a4.59,4.59,0,0,0,4.64-4.65V167.47h36.77v160.8a4.59,4.59,0,0,0,4.64,4.65h9.1a4.59,4.59,0,0,0,4.64-4.65V61.34A4.78,4.78,0,0,0,622.27,56.7Z"/><path class="cls-1" d="M860.25,56.73h-9.12a4.58,4.58,0,0,0-4.64,4.64v223.1a12.24,12.24,0,0,1-.85,4.64l-13.49,25.41-7.43-.14h0l-.11-.2,0-.12-9.13-16.85L811.12,289a12.06,12.06,0,0,1-.86-4.64V61.23a4.35,4.35,0,0,0-4.5-4.5h-9.44a4.35,4.35,0,0,0-4.5,4.5v223.1A12.05,12.05,0,0,1,791,289l-4.41,8.24-9.14,16.85.05.12-.1.2h0l-7.44.14-13.48-25.41a12.05,12.05,0,0,1-.85-4.64V61.37A4.59,4.59,0,0,0,751,56.73h-9.11a4.58,4.58,0,0,0-4.64,4.64v223.1A32.79,32.79,0,0,0,743,303l15.66,27.56a4.35,4.35,0,0,0,4.07,2.31h22c.13,0,.26,0,.39-.05l0,.05h0a4.63,4.63,0,0,0,4.06-2.31L801,309.55l11.82,21.05a4.65,4.65,0,0,0,4.07,2.31h0l0-.05c.14,0,.26.05.4.05h22a4.33,4.33,0,0,0,4.06-2.31L859.09,303a32.72,32.72,0,0,0,5.8-18.57V61.37A4.58,4.58,0,0,0,860.25,56.73Z"/><path class="cls-1" d="M896.62,306.66h-8.56a4.24,4.24,0,0,0-4.29,4.29v17.67a4.24,4.24,0,0,0,4.29,4.29h8.56a4.41,4.41,0,0,0,4.29-4.29V311A4.41,4.41,0,0,0,896.62,306.66Z"/><path class="cls-1" d="M956.68,104.86V93.79a36.75,36.75,0,0,0-73.5,0v6.15a4.64,4.64,0,0,0,1.18,3.14,4.69,4.69,0,0,0,3.46,1.5h9a4.58,4.58,0,0,0,4.64-4.64V96.56s0-1.82,0-2.77A18.46,18.46,0,0,1,906.9,80.7,19.13,19.13,0,0,1,912,77.09l.07,0a21.92,21.92,0,0,1,6.26-1.71h.23a11.18,11.18,0,0,1,1.27-.07H920a14.27,14.27,0,0,1,1.46.07,6.55,6.55,0,0,1,1,.11,22.71,22.71,0,0,1,6.83,2.31,3,3,0,0,1,.35.19,19.05,19.05,0,0,1,3.49,2.75,18.46,18.46,0,0,1,5.42,13.09v12.82S902.31,207.8,887.31,257.82l0,.05c-2.24,7.81-3.58,13-3.58,14.25v13.12a4.24,4.24,0,0,0,4.29,4.29h8.56a4.41,4.41,0,0,0,4.29-4.29V272.12c14.22-43.88,55.77-160.53,55.77-167.18Z"/><path class="cls-1" d="M112.35,298.52a18.47,18.47,0,0,1-5.28,10.76,19.49,19.49,0,0,1-3.49,2.75l-.34.18a22.49,22.49,0,0,1-6.84,2.31,8,8,0,0,1-1,.12c-.48,0-1,.06-1.45.06h-.21c-.42,0-.83,0-1.27-.06h-.23A22.07,22.07,0,0,1,86,312.93l-.07-.05a18.79,18.79,0,0,1-5.08-3.6,18.49,18.49,0,0,1-5.43-13.1c0-.95,0-2.77,0-2.77V290a4.6,4.6,0,0,0-4.65-4.65h-9a4.68,4.68,0,0,0-3.47,1.51A4.59,4.59,0,0,0,57.14,290v6.14a36.75,36.75,0,0,0,73.49,0V285.12c0-8.71-55.37-178.51-55.37-178.51V93.79A18.46,18.46,0,0,1,80.7,80.7,18.65,18.65,0,0,1,84.18,78a3,3,0,0,1,.35-.19,22.67,22.67,0,0,1,6.84-2.31,6.26,6.26,0,0,1,1-.11,14.08,14.08,0,0,1,1.45-.07H94a11.05,11.05,0,0,1,1.27.07h.23a21.83,21.83,0,0,1,6.26,1.71l.07,0a19,19,0,0,1,5.08,3.61,18.46,18.46,0,0,1,5.43,13.09c0,.95,0,2.77,0,2.77v3.38a4.58,4.58,0,0,0,4.64,4.64h9a4.69,4.69,0,0,0,3.46-1.5,4.64,4.64,0,0,0,1.18-3.14V93.79a36.75,36.75,0,0,0-73.49,0v11.15c0,6.65,34.13,112.5,48.36,156.39l6.14,18.84c.3,1.31.56,2.21.71,3.13"/><path class="cls-1" d="M218.22,57h-9.11a4.91,4.91,0,0,0-4.78,4.64V296.14h0a18.26,18.26,0,0,1-18.24,18.38,18.5,18.5,0,0,1-18.52-18.38h0v-66h0V61.61A4.78,4.78,0,0,0,162.93,57H153.8a5,5,0,0,0-4.64,4.64v235a29.92,29.92,0,0,0,.91,7.17A36.75,36.75,0,0,0,186,332.92h.09c.18,0,.35,0,.53,0A36.54,36.54,0,0,0,221.8,303.7a29.41,29.41,0,0,0,.88-7.05v-235A4.62,4.62,0,0,0,218.22,57Z"/><path class="cls-1" d="M706.49,66.15A36.57,36.57,0,0,0,682,56.71h-.08l-.4,0c-18.57,0-36.2,15.08-36.2,33.65v1.8c0,.44,0,2.17,0,2.61V294.87c0,.44,0,3.46,0,3.46a36.73,36.73,0,0,0,72.79,4.47,27.23,27.23,0,0,0,.73-6.15V90.35C718.81,80.85,713.81,72.27,706.49,66.15Zm-6.06,59v171h0a18.38,18.38,0,0,1-36.76,0c0-.22,0-.43,0-.65V94.37c0-.22,0-1.7,0-1.7a18.38,18.38,0,0,1,36.73,1h0Z"/></svg>