<?xml version="1.0" encoding="UTF-8"?>
<svg id="Layer_1" data-name="Layer 1" xmlns="http://www.w3.org/2000/svg" width="1920" height="743.11" viewBox="0 0 1920 743.11">
  <path d="M208.55,607.01h-13.45c-33.44,0-60.55-27.11-60.55-60.55v-35.32c0-2.79,2.26-5.05,5.05-5.05h23.55c2.79,0,5.05,2.26,5.05,5.05v35.32c0,14.86,12.05,26.91,26.91,26.91h13.45c14.86,0,26.91-12.05,26.91-26.91v-18.09c0-1.81-.29-3.59-.86-5.31L137.13,230.95c-1.71-5.15-2.58-10.51-2.58-15.94v-18.37c0-33.44,27.11-60.55,60.55-60.55h13.45c33.44,0,60.55,27.11,60.55,60.55v35.87c0,2.79-2.26,5.05-5.05,5.05h-23.55c-2.79,0-5.05-2.26-5.05-5.05v-35.87c0-14.86-12.05-26.91-26.91-26.91h-13.45c-14.86,0-26.91,12.05-26.91,26.91v18.37c0,1.8,.29,3.6,.86,5.31l97.47,292.11c1.71,5.14,2.58,10.52,2.58,15.94v18.09c0,33.44-27.11,60.55-60.55,60.55Z" style="fill: #4296ff;"/>
  <path d="M376.73,607.01h-13.45c-33.44,0-60.55-27.11-60.55-60.55V141.14c0-2.79,2.26-5.05,5.05-5.05h23.55c2.79,0,5.05,2.26,5.05,5.05v405.33c0,14.86,12.05,26.91,26.91,26.91h13.45c14.86,0,26.91-12.05,26.91-26.91V141.14c0-2.79,2.26-5.05,5.05-5.05h23.55c2.79,0,5.05,2.26,5.05,5.05v405.33c0,33.44-27.11,60.55-60.55,60.55Z" style="fill: #4296ff;"/>
  <path d="M499.54,607.01h-23.58c-2.79,0-5.05-2.26-5.05-4.7V149.9c0-7.78,5.99-13.8,13.42-13.8h60.58c33.44,0,60.54,27.11,60.54,60.55v80.97c0,33.44-27.11,60.55-60.55,60.55h-40.36l.03,263.81c0,2.79-2.26,5.05-5.05,5.05Zm5.01-302.49h40.36c14.84,0,26.91-12.07,26.91-26.91v-80.97c0-14.84-12.07-26.91-26.91-26.91h-40.36v134.79Z" style="fill: #4296ff;"/>
  <path d="M1174.94,136.1h-23.55c-2.79,0-5.05,2.26-5.05,5.05v163.35h-67.27V141.14c0-2.79-2.26-5.05-5.05-5.05h-23.55c-2.79,0-5.05,2.26-5.05,5.05v460.83c0,2.79,2.26,5.05,5.05,5.05h23.55c2.79,0,5.05-2.26,5.05-5.05V338.12h67.27v263.84c0,2.79,2.26,5.05,5.05,5.05h23.55c2.79,0,5.05-2.26,5.05-5.05V141.14c0-2.79-2.26-5.05-5.05-5.05Z" style="fill: #4296ff;"/>
  <path d="M737.66,573.38h-64.92v-235.23h55.51c2.79,0,5.05-2.26,5.05-5.05v-23.55c0-2.79-2.26-5.05-5.05-5.05h-55.24l-.26-134.78h62.23c2.79,0,5.05-2.26,5.05-5.05v-23.55c0-2.79-2.26-5.05-5.05-5.05h-82.42c-7.43,0-13.45,6.02-13.45,13.45v444.01c0,7.43,6.02,13.45,13.45,13.45h85.1c2.79,0,5.05-2.26,5.05-5.05v-23.55c0-2.79-2.26-5.05-5.05-5.05Z" style="fill: #4296ff;"/>
  <g>
    <path d="M1712.7,505.97h-23.55c-2.79,0-5.05-2.26-5.05-5.05v-56.74c0-5.47,.88-10.87,2.62-16.05l64.21-190.99c.58-1.73,.87-3.53,.87-5.35v-35.15c0-14.86-12.05-26.91-26.91-26.91h-13.45c-14.86,0-26.91,12.05-26.91,26.91v35.88c0,2.79-2.26,5.05-5.05,5.05h-23.55c-2.79,0-5.05-2.26-5.05-5.05v-35.88c0-33.44,27.11-60.55,60.55-60.55h13.45c33.44,0,60.55,27.11,60.55,60.55v35.15c0,5.46-.88,10.88-2.62,16.05l-64.21,190.99c-.58,1.73-.87,3.53-.87,5.35v56.74c0,2.79-2.26,5.05-5.05,5.05Z" style="fill: #4296ff;"/>
    <rect x="1684.13" y="539.74" width="33.64" height="67.27" rx="5.05" ry="5.05" style="fill: #4296ff;"/>
  </g>
  <path d="M1612.22,136.1h-23.55c-2.79,0-5.05,2.26-5.05,5.05v377c0,.52-.12,1.04-.36,1.51l-26.93,53.72h-12.85l-27.14-54.42V141.14c0-2.79-2.26-5.05-5.05-5.05h-23.55c-2.79,0-5.05,2.26-5.05,5.05v377.82l-27.14,54.42h-12.85l-26.93-53.73c-.23-.47-.36-.98-.36-1.51V141.14c0-2.79-2.26-5.05-5.05-5.05h-23.55c-2.79,0-5.05,2.26-5.05,5.05v377c0,5.73,1.36,11.47,3.92,16.58l30.65,61.15c3.42,6.83,10.41,11.14,18.04,11.14h29.48c7.69,0,14.61-4.28,18.06-11.18l17.57-35.24,17.58,35.25c3.44,6.88,10.36,11.16,18.05,11.16h29.48c7.64,0,14.62-4.31,18.04-11.14l30.65-61.15c2.58-5.15,3.93-10.83,3.93-16.59V141.14c0-2.79-2.26-5.05-5.05-5.05Z" style="fill: #4296ff;"/>
  <path d="M910.89,277.52v-80.88c0-33.44-27.11-60.55-60.55-60.55h-60.55c-7.43,0-13.45,6.02-13.45,13.6v457.32h33.64V338.12h40.36c14.86,0,26.91,12.05,26.91,26.91v241.98h33.64v-241.98c0-17.24-7.24-32.75-18.79-43.78,11.55-11.03,18.79-26.54,18.79-43.74Zm-100.91-107.78h40.36c14.84,0,26.91,12.07,26.91,26.91v80.88c0,14.84-12.07,26.91-26.91,26.91h-40.36V169.73Z" style="fill: #4296ff;"/>
  <path d="M1287.62,136.1h-13.45c-33.38,0-60.55,27.16-60.55,60.55v349.82c0,33.39,27.16,60.55,60.55,60.55h13.45c33.38,0,60.55-27.16,60.55-60.55V196.64c0-33.39-27.16-60.55-60.55-60.55Zm26.91,410.37c0,14.84-12.07,26.91-26.91,26.91h-13.45c-14.84,0-26.91-12.07-26.91-26.91V196.64c0-14.84,12.07-26.91,26.91-26.91h13.45c14.84,0,26.91,12.07,26.91,26.91v349.82Z" style="fill: #4296ff;"/>
</svg>