<?xml version="1.0" encoding="UTF-8"?>
<svg id="Layer_1" data-name="Layer 1" xmlns="http://www.w3.org/2000/svg" width="1080" height="1080" viewBox="0 0 1080 1080">
  <path d="M305.42,883.17h-19.61c-48.74,0-88.24-39.51-88.24-88.24v-51.48c0-4.06,3.29-7.35,7.35-7.35h34.32c4.06,0,7.35,3.29,7.35,7.35v51.48c0,21.66,17.56,39.22,39.22,39.22h19.61c21.66,0,39.22-17.56,39.22-39.22v-26.37c0-2.63-.42-5.24-1.26-7.74L201.34,335.08c-2.5-7.5-3.77-15.32-3.77-23.23v-26.77c0-48.74,39.51-88.24,88.24-88.24h19.61c48.74,0,88.24,39.51,88.24,88.24v52.28c0,4.06-3.29,7.35-7.35,7.35h-34.32c-4.06,0-7.35-3.29-7.35-7.35v-52.28c0-21.66-17.56-39.22-39.22-39.22h-19.61c-21.66,0-39.22,17.56-39.22,39.22v26.78c0,2.63,.42,5.24,1.25,7.74l142.05,425.74c2.49,7.49,3.77,15.33,3.77,23.23v26.37c0,48.74-39.51,88.24-88.24,88.24Z" style="fill: #4296ff;"/>
  <path d="M631.43,196.83h-34.32c-4.06,0-7.35,3.29-7.35,7.35v238.07h-98.05V204.19c0-4.06-3.29-7.35-7.35-7.35h-34.32c-4.06,0-7.35,3.29-7.35,7.35V875.81c0,4.06,3.29,7.35,7.35,7.35h34.32c4.06,0,7.35-3.29,7.35-7.35V491.28h98.05v384.54c0,4.06,3.29,7.35,7.35,7.35h34.32c4.06,0,7.35-3.29,7.35-7.35V204.19c0-4.06-3.29-7.35-7.35-7.35Z" style="fill: #4296ff;"/>
  <g>
    <path d="M777.88,735.89h-34.32c-4.06,0-7.35-3.29-7.35-7.35v-82.69c0-7.97,1.29-15.84,3.82-23.39l93.58-278.35c.84-2.52,1.27-5.14,1.27-7.8v-51.23c0-21.66-17.56-39.22-39.22-39.22h-19.61c-21.66,0-39.22,17.56-39.22,39.22v52.29c0,4.06-3.29,7.35-7.35,7.35h-34.32c-4.06,0-7.35-3.29-7.35-7.35v-52.29c0-48.74,39.51-88.24,88.24-88.24h19.61c48.74,0,88.24,39.51,88.24,88.24v51.23c0,7.95-1.29,15.85-3.82,23.39l-93.58,278.35c-.84,2.52-1.27,5.14-1.27,7.8v82.69c0,4.06-3.29,7.35-7.35,7.35Z" style="fill: #4296ff;"/>
    <rect x="736.24" y="785.12" width="49.02" height="98.05" rx="7.35" ry="7.35" style="fill: #4296ff;"/>
  </g>
</svg>