<?xml version="1.0" encoding="UTF-8"?>
<svg id="Layer_1" data-name="Layer 1" xmlns="http://www.w3.org/2000/svg" width="1080" height="1080" viewBox="0 0 1080 1080">
  <polygon points="209.95 349.17 209.95 211.54 210.58 211.54 210.58 210.26 349.92 210.26 349.92 254.74 254.42 254.74 254.42 349.17 209.95 349.17" style="fill: #4296ff;"/>
  <polygon points="728.84 869.89 728.84 825.42 825.42 825.42 825.42 729.81 869.89 729.81 869.89 868.62 869.26 868.62 869.26 869.89 728.84 869.89" style="fill: #4296ff;"/>
  <polygon points="681.26 822.85 681.26 822.77 681.22 822.85 681.26 822.85" style="fill: #4296ff;"/>
  <polygon points="728.53 633.64 728.53 633.25 728.33 633.64 728.53 634.03 728.53 633.64" style="fill: #4296ff;"/>
  <path d="M449.25,635.88v-191.6l68.82-136.09h257.43l.41,192.35-67.43,135.34H449.25Zm44.12-181.08v136.96h187.8l50.6-101.56-.29-137.89h-186.27l-51.83,102.49Z" style="fill: #4296ff;"/>
  <path d="M306.24,771.19v-191.6l68.82-136.09h257.43l.41,192.35-67.43,135.34H306.24Zm44.12-181.08v136.96h187.8l50.6-101.56-.29-137.89h-186.27l-51.83,102.49Z" style="fill: #4296ff;"/>
</svg>