<?xml version="1.0" encoding="UTF-8"?>
<svg id="Layer_1" data-name="Layer 1" xmlns="http://www.w3.org/2000/svg" width="1080" height="1080" viewBox="0 0 1080 1080">
  <polygon points="764.25 860.03 762.78 860.03 665.26 860.03 665.26 813.51 764.25 813.51 764.25 266.57 665.14 266.57 665.14 219.97 810.76 219.97 810.76 860.03 764.25 860.03" style="fill: #4296ff;"/>
  <polygon points="468.92 686.28 395.71 540.1 468.92 393.91 520.42 393.91 447.2 540.1 520.42 686.28 468.92 686.28" style="fill: #4296ff;"/>
  <polygon points="569.67 686.28 642.89 540.1 569.67 393.91 621.17 393.91 694.38 540.1 621.17 686.28 569.67 686.28" style="fill: #4296ff;"/>
  <polygon points="269.24 860.03 269.24 219.97 414.97 219.97 414.97 266.57 315.75 266.57 315.75 813.51 414.97 813.51 414.97 860.03 269.24 860.03" style="fill: #4296ff;"/>
</svg>